<?xml version="1.0" standalone="no"?>
<!DOCTYPE svg PUBLIC "-//W3C//DTD SVG 1.1//EN" "http://www.w3.org/Graphics/SVG/1.1/DTD/svg11.dtd" >
<svg xmlns="http://www.w3.org/2000/svg" xmlns:xlink="http://www.w3.org/1999/xlink" version="1.1">
<metadata></metadata>
<defs>
<font id="quangobold" horiz-adv-x="1275" >
<font-face units-per-em="2048" ascent="1536" descent="-512" />
<missing-glyph horiz-adv-x="620" />
<glyph horiz-adv-x="0" />
<glyph horiz-adv-x="682" />
<glyph unicode=" "  horiz-adv-x="620" />
<glyph unicode="&#x09;" horiz-adv-x="620" />
<glyph unicode="&#xa0;" horiz-adv-x="620" />
<glyph unicode="!" horiz-adv-x="458" d="M6 51q-13 63 0 127q10 38 74 53t129 -0.5t74 -54.5q17 -61 0 -121q-9 -40 -73.5 -55.5t-129 -0.5t-74.5 52zM25 297v979l239 -31v-948h-239z" />
<glyph unicode="&#x22;" horiz-adv-x="614" d="M0 971v305l180 -25v-311zM248 971v305l180 -25v-311z" />
<glyph unicode="#" horiz-adv-x="1363" d="M12 412l29 90h307l64 178h-318l27 90h323l107 293h96l-104 -293h221l104 293h97l-105 -293h303l-28 -90h-308l-63 -178h317l-26 -90h-324l-106 -293h-97l105 293h-221l-105 -293h-98l106 293h-303zM444 502h222l65 178h-221z" />
<glyph unicode="$" horiz-adv-x="1204" d="M0 164l100 57q40 -66 141 -104t226 -41v483q-234 79 -343.5 181.5t-109.5 238.5q2 77 42 138t105.5 99.5t142.5 60.5t163 28v120h92v-118q139 -2 259.5 -35.5t187.5 -95.5l-93 -66q-52 52 -147.5 80.5t-206.5 30.5v-461q80 -26 140 -50t125 -61.5t106.5 -79.5t68.5 -102 t27 -131q0 -157 -122.5 -245t-344.5 -99v-121h-92v119q-157 3 -285.5 48t-181.5 126zM248 1026q0 -65 55 -127t164 -106v421q-102 -17 -160.5 -68.5t-58.5 -119.5zM559 80q109 13 173.5 70t64.5 131q0 70 -59.5 136t-178.5 111v-448z" />
<glyph unicode="%" horiz-adv-x="1095" d="M-1 756q0 50 9 90q8 32 44.5 54t84.5 27t96 -0.5t84.5 -27.5t44.5 -55q17 -85 0 -174q-10 -42 -63 -65t-114 -22.5t-114 23t-63 62.5q-9 38 -9 88zM98 713q6 -26 46.5 -37t81 0t46.5 39q10 42 0 84q-6 27 -46.5 38t-81 0.5t-46.5 -36.5q-10 -46 0 -88zM106 193l539 772 h111l-539 -772h-111zM502 311q-20 89 0 178q7 32 43 54t84 27t96 -0.5t84.5 -27.5t44.5 -55q20 -86 0 -172q-7 -34 -43.5 -56.5t-84.5 -28t-96 0t-84.5 27t-43.5 53.5zM590 356q6 -26 46.5 -37t81 0t46.5 39q10 41 0 86q-6 26 -46 36.5t-80.5 0t-47.5 -36.5q-10 -44 0 -88z " />
<glyph unicode="&#x26;" d="M0 1276h930v-92h-604l567 -1022q80 67 94 205h115q-17 -216 -158 -299l78 -140h-274l-39 72q-19 -2 -69.5 -3.5t-76.5 -4.5q-127 0 -237 23.5t-191.5 76t-101.5 127.5q-23 94 -23 162q0 146 62 229t227 125zM250 381q0 -29 2 -53t10.5 -56.5t23 -57.5t42 -51.5 t64.5 -43.5t93.5 -28t126.5 -11q32 4 50 4l-304 547q-108 -65 -108 -250z" />
<glyph unicode="'" horiz-adv-x="362" d="M0 971v305l180 -25v-311z" />
<glyph unicode="(" horiz-adv-x="731" d="M0 600q0 250 33 458.5t88 250.5q73 57 183.5 86.5t234.5 29.5v-86q-71 0 -143 -27t-111 -77q-29 -36 -45.5 -208t-16.5 -388q0 -209 14 -374.5t39 -201.5q37 -56 112.5 -87t150.5 -31v-82q-129 0 -243 32t-185 93q-54 47 -82.5 218t-28.5 394z" />
<glyph unicode=")" horiz-adv-x="737" d="M0 -55q75 0 150 30.5t112 87.5q25 36 39 201.5t14 374.5q0 217 -16 388.5t-45 207.5q-39 50 -111 77t-143 27v86q124 0 234.5 -29.5t183.5 -86.5q55 -42 88 -250.5t33 -458.5q0 -223 -28.5 -394t-82.5 -218q-71 -61 -185 -93t-243 -32v82z" />
<glyph unicode="*" horiz-adv-x="751" d="M0 999v80h172l-121 121l55 57l121 -122v172h80v-172l123 122l55 -57l-120 -121h172v-80h-172l120 -120l-55 -58l-123 123v-174h-80v174l-121 -123l-55 58l121 120h-172z" />
<glyph unicode="+" horiz-adv-x="964" d="M0 510v137h317v318h138v-318h319v-137h-319v-317h-138v317h-317z" />
<glyph unicode="," horiz-adv-x="505" d="M6 51q-13 63 0 127q10 38 74 53t129 -0.5t74 -54.5q8 -24 8 -61q0 -155 -55 -254h-115q38 46 51 133q-57 -5 -107 10.5t-59 46.5z" />
<glyph unicode="-" horiz-adv-x="1003" d="M0 510v137h774v-137h-774z" />
<glyph unicode="." horiz-adv-x="497" d="M6 51q-13 63 0 127q10 38 74 53t129 -0.5t74 -54.5q17 -61 0 -121q-9 -40 -73.5 -55.5t-129 -0.5t-74.5 52z" />
<glyph unicode="/" horiz-adv-x="757" d="M0 -129l561 1554h96l-561 -1554h-96z" />
<glyph unicode="0" horiz-adv-x="1267" d="M0 612q0 195 33 359t88 207q73 57 183.5 87.5t232.5 30.5q123 0 233.5 -30.5t183.5 -87.5q55 -43 88 -207t33 -359q0 -175 -28 -310.5t-82 -182.5q-72 -61 -186 -94t-242 -33q-127 0 -240.5 33t-185.5 94q-54 47 -82.5 183t-28.5 310zM248 639q0 -157 14 -282.5 t39 -163.5q38 -58 102 -88.5t134 -30.5q72 0 135.5 30.5t101.5 88.5q25 38 39 163.5t14 282.5q0 164 -16 296.5t-45 170.5q-40 50 -101 76t-128 26t-127.5 -26t-100.5 -76q-30 -37 -45.5 -168.5t-15.5 -298.5z" />
<glyph unicode="1" horiz-adv-x="628" d="M0 1133v88l430 55v-88v-1188h-240v1157z" />
<glyph unicode="2" horiz-adv-x="1198" d="M0 141q0 82 19.5 148.5t53.5 112.5t78.5 82.5t97 62.5t106.5 47.5t109.5 42.5t103.5 43t91 53.5t70 69.5q51 71 51 153q0 107 -82 184t-217 77q-115 0 -214 -28t-152 -83l-92 65q68 64 191 98t265 34q130 0 236.5 -31t175 -84t105 -121.5t36.5 -146.5q0 -168 -153 -306 q-49 -44 -112 -80t-120.5 -58.5t-118 -45.5t-109 -48t-87.5 -58t-60.5 -83t-21.5 -116v-35h758v-90h-1006q0 24 -1 71t-1 70z" />
<glyph unicode="3" horiz-adv-x="1189" d="M0 131l82 57l2 -2q45 -52 133 -79t191 -27q83 0 156.5 19.5t128 62t65.5 100.5q12 71 12 119q0 147 -76.5 223t-226.5 76h-53l280 504h-643v92h969l-299 -541q164 -42 225.5 -127t61.5 -229q0 -67 -15 -121.5t-53 -105.5t-99 -85t-158.5 -54.5t-225.5 -20.5 q-139 0 -264 37t-191 100z" />
<glyph unicode="4" d="M0 506l233 766l240 -33l-164 -537l-30 -104h397v678h239v-31v-647h185v-92h-185v-506h-239v39v467h-426h-250z" />
<glyph unicode="5" horiz-adv-x="1171" d="M0 131l82 57l2 -2q45 -52 133 -79t191 -27q83 0 156.5 19.5t128 62t65.5 100.5q12 71 12 119q0 147 -76.5 223t-226.5 76h-180h-246l100 596h787v-92h-557l-68 -412h162q50 0 108.5 -6t127 -23t126 -41.5t101.5 -66t57 -92.5q23 -97 23 -164t-15 -121.5t-53 -105.5 t-99 -85t-158.5 -54.5t-225.5 -20.5q-139 0 -264 37t-191 100z" />
<glyph unicode="6" d="M0 455v397q0 130 27 235q28 105 178.5 164.5t343.5 59.5q142 0 265.5 -33.5t191.5 -97.5l-93 -66q-54 54 -153.5 82.5t-212.5 28.5q-108 0 -193.5 -49t-99.5 -134q-14 -96 -14 -188v-119q136 47 305 47q187 0 340 -67t180 -172q22 -93 22 -162t-22 -162 q-28 -108 -177 -167.5t-343 -59.5q-124 0 -232.5 24.5t-188 77.5t-97.5 127q-27 105 -27 234zM240 455q0 -112 14 -189q16 -89 100 -138.5t193 -49.5q108 0 191.5 48t99.5 136q12 71 12 125q0 56 -12 127q-14 85 -98.5 132.5t-192.5 47.5l-2 2v-2q-188 0 -305 -63v-176z" />
<glyph unicode="7" horiz-adv-x="1132" d="M0 1184v92h838h96l-221 -563l-279 -713h-258l463 1184h-639z" />
<glyph unicode="8" d="M0 379q0 141 58 225.5t212 126.5q-166 53 -188 146q-19 74 -19 127q0 55 19 129q21 83 154.5 129.5t306.5 46.5t306 -46.5t155 -129.5q18 -70 18 -129q0 -40 -4.5 -70.5t-17 -62.5t-35 -56t-59.5 -46t-89 -38q153 -43 210.5 -127t57.5 -223q0 -69 -22 -162 q-28 -108 -177 -167.5t-343 -59.5q-124 0 -233 24.5t-189 77.5t-98 127q-10 42 -23 158zM240 379q3 -61 12 -113q14 -89 99 -138.5t194 -49.5q108 0 191.5 48t99.5 136q12 71 12 125q0 56 -12 127q-16 86 -100 133t-193 47q-149 0 -226 -74t-77 -221v-20zM301 1014 q0 -116 49 -176t156 -72q69 0 116 10t86 35.5t57.5 73.5t18.5 121q0 247 -241 247q-242 0 -242 -239z" />
<glyph unicode="9" horiz-adv-x="1282" d="M0 922q0 66 23 163q28 107 176.5 166.5t341.5 59.5q125 0 234 -24.5t189 -78t99 -127.5q24 -102 24 -231v-397q0 -134 -26 -238q-18 -71 -97.5 -122.5t-189 -76t-233.5 -24.5q-143 0 -267 34t-192 99l92 65q53 -54 152.5 -82t214.5 -28q108 0 192.5 47.5t100.5 132.5 q14 80 14 189v118q-131 -45 -303 -45q-189 0 -342 66.5t-180 171.5q-25 103 -23 162zM238 915q0 -53 12 -124q16 -85 100.5 -134t190.5 -49l2 -2l2 2q180 0 303 66v176q0 111 -14 188q-16 89 -100.5 138t-192.5 49q-303 0 -303 -310z" />
<glyph unicode=":" horiz-adv-x="497" d="M6 51q-13 63 0 127q10 38 74 53t129 -0.5t74 -54.5q17 -61 0 -121q-9 -40 -73.5 -55.5t-129 -0.5t-74.5 52zM6 729q-14 63 0 125q10 38 74 53.5t129 0.5t74 -54q17 -61 0 -123q-9 -39 -73.5 -54.5t-129 0t-74.5 52.5z" />
<glyph unicode=";" horiz-adv-x="512" d="M6 51q-13 63 0 127q10 38 74 53t129 -0.5t74 -54.5q8 -24 8 -61q0 -155 -55 -254h-115q38 46 51 133q-57 -5 -107 10.5t-59 46.5zM6 729q-14 63 0 125q10 38 74 53.5t129 0.5t74 -54q17 -61 0 -123q-9 -39 -73.5 -54.5t-129 0t-74.5 52.5z" />
<glyph unicode="&#x3c;" horiz-adv-x="876" d="M0 578l412 444h278l-414 -444l414 -443h-278z" />
<glyph unicode="=" horiz-adv-x="970" d="M0 365v137h774v-137h-774zM0 655v138h774v-138h-774z" />
<glyph unicode="&#x3e;" horiz-adv-x="862" d="M0 135l414 443l-414 444h279l411 -444l-411 -443h-279z" />
<glyph unicode="?" horiz-adv-x="1204" d="M0 1171q68 64 192 98t265 34q130 0 236.5 -31t175 -84t105 -121.5t36.5 -146.5q0 -167 -154 -306q-40 -36 -96.5 -68.5t-97 -50t-109.5 -44.5v-154h-240v289q30 12 88.5 32.5t92.5 34.5t78.5 36t78 50t58.5 64q49 73 49 153q0 106 -81.5 183.5t-215.5 77.5 q-116 0 -216 -28t-153 -83zM289 115q0 66 31.5 94.5t111.5 28.5q51 0 91.5 -16.5t47.5 -45.5q9 -41 9 -61q0 -65 -34.5 -94t-113.5 -29q-81 0 -112 28.5t-31 94.5z" />
<glyph unicode="@" horiz-adv-x="1705" d="M0 475q0 181 35 307q26 103 136.5 177.5t260.5 108.5t322 34q128 0 245.5 -20.5t216 -59t166 -101.5t88.5 -143q33 -124 33 -321q0 -265 -76 -371l-100 12l-131 17l-195 26q-107 -39 -249 -39q-154 0 -276 49.5t-144 133.5q-25 89 -25 194q0 99 23 189q22 86 144 134 t278 48q158 0 278 -48t144 -136q19 -80 22 -174v-291l168 -23q39 80 39 301q0 140 -33 279q-21 79 -115 136t-222.5 84t-278.5 30q-147 0 -278 -27t-226.5 -84.5t-116.5 -136.5q-31 -113 -31 -285q0 -164 33 -285q20 -76 115.5 -132t228 -82.5t281.5 -26.5q111 0 219 18 l-12 -100q-119 -14 -207 -14q-128 0 -247 19.5t-219 57.5t-168.5 99.5t-88.5 138.5q-37 136 -37 307zM504 477q0 -88 12 -155q11 -70 79.5 -109t156.5 -39q154 0 249 53v252q0 85 -12 152q-13 72 -81 111.5t-156 39.5q-87 0 -156 -39.5t-80 -109.5q-12 -71 -12 -156z" />
<glyph unicode="A" horiz-adv-x="1226" d="M0 0v1116v23q53 68 167.5 109.5t246.5 47.5q29 1 59 1q103 1 201 -15q126 -20 218 -75t112 -132q25 -90 28 -221v-16v-45v-793h-239v526h-553v-526h-240zM240 616h553v177v61q-3 104 -17 176q-14 85 -98.5 132.5t-192.5 47.5q-141 0 -245 -36v-558z" />
<glyph unicode="B" horiz-adv-x="1259" d="M0 440v676v23q64 81 200 120t312 39q178 0 317 -48t164 -138q19 -71 19 -123q0 -103 -43.5 -165.5t-153.5 -104.5q82 -24 137 -58.5t84 -80.5t40 -95.5t11 -117.5q0 -72 -22 -162q-28 -108 -177 -168t-341 -60q-124 0 -233 25t-188.5 79t-98.5 128q-27 102 -27 231z M240 440q0 -111 14 -188q16 -89 99.5 -137.5t193.5 -48.5q148 0 225.5 76t77.5 225q0 299 -303 299h-2h-41h-264v-226zM240 754h321q121 4 183.5 65.5t62.5 169.5q0 101 -46 152t-149 65q-27 4 -94 4q-177 0 -278 -36v-420z" />
<glyph unicode="C" horiz-adv-x="1234" d="M0 395v443q0 129 27 237q19 70 98.5 121t189.5 75.5t234 24.5q141 0 265 -33.5t192 -97.5l-93 -65q-53 55 -152 82.5t-214 27.5q-69 0 -130.5 -19.5t-107 -61.5t-55.5 -99q-14 -100 -14 -192v-402q0 -111 14 -188q14 -85 99.5 -133.5t193.5 -48.5q134 0 243.5 37.5 t151.5 107.5l100 -57q-54 -85 -190 -129.5t-303 -44.5q-124 0 -234 24.5t-190 76t-98 122.5q-21 84 -27 192z" />
<glyph unicode="D" horiz-adv-x="1226" d="M0 0v1139q61 76 192.5 116.5t290.5 40.5q124 0 233.5 -24.5t189 -75.5t98.5 -121q28 -119 28 -227v-31v-379q-3 -117 -28 -215q-18 -71 -97 -122.5t-188.5 -76t-233.5 -24.5h-245h-240zM240 86h245q108 0 192.5 48.5t98.5 133.5q17 117 17 189v360v31q0 65 -17 182 q-14 85 -98.5 132.5t-192.5 47.5q-141 0 -245 -36v-1088z" />
<glyph unicode="E" horiz-adv-x="1048" d="M0 440v699q63 81 198.5 120t307.5 39h39h305v-88h-305h-29q-175 0 -276 -36v-420h462v-88h-462v-226q0 -92 14 -192q10 -57 55.5 -99t107 -61.5t130.5 -19.5q182 0 297 59l65 -78q-144 -69 -362 -69q-193 0 -342.5 59t-177.5 164q-27 108 -27 237z" />
<glyph unicode="F" horiz-adv-x="1060" d="M0 0v838v301q63 81 198.5 120t307.5 39h39h305v-88h-305h-29q-175 0 -276 -36v-420h462v-88h-462v-666h-240z" />
<glyph unicode="G" horiz-adv-x="1284" d="M0 440v398q0 129 27 237q19 70 98.5 121t189.5 75.5t234 24.5q141 0 265 -33.5t192 -97.5l-93 -65q-53 55 -152 82.5t-214 27.5q-69 0 -130.5 -19.5t-107 -61.5t-55.5 -99q-14 -100 -14 -190v-400q0 -111 14 -188q16 -89 99.5 -137.5t193.5 -48.5q138 0 219.5 69.5 t81.5 200.5v192h-301v86h540v-268q-3 -59 -22 -141q-28 -107 -176.5 -167.5t-341.5 -60.5q-124 0 -233 25t-188.5 79t-98.5 128q-27 103 -27 210v21z" />
<glyph unicode="H" horiz-adv-x="1169" d="M0 0v1290l240 -30v-506h499v82v454l240 -30v-424v-394v-2v-409v-31h-240v440v2v224h-499v-635v-31h-240z" />
<glyph unicode="I" horiz-adv-x="430" d="M0 0v1290l240 -30v-1260h-240z" />
<glyph unicode="J" horiz-adv-x="456" d="M-291 -319q70 0 131 20t106 62.5t56 101.5q14 80 14 192l11 1233l239 -30l-10 -1203q0 -129 -27 -237q-18 -72 -97.5 -124.5t-188.5 -77t-234 -24.5v87z" />
<glyph unicode="K" horiz-adv-x="1288" d="M0 0v1290l240 -30v-691l706 707h123l-195 -195l-403 -403l678 -678h-340l-508 508l-61 61v-538v-31h-240z" />
<glyph unicode="L" horiz-adv-x="880" d="M0 0v1290l240 -30v-1174h450v-86h-450h-240z" />
<glyph unicode="M" horiz-adv-x="1546" d="M0 0q10 198 31.5 628t31.5 627q0 11 7 21h57h39h72l448 -641l447 641h71h39h60q4 -12 4 -21q10 -198 31.5 -627.5t31.5 -627.5h-240l-2 31q-5 109 -19.5 398t-21.5 429l-10 180l-387 -555l-4 -8l-57 80l-336 483l-10 -180q-7 -140 -21 -429t-20 -398l-2 -31h-240z" />
<glyph unicode="N" horiz-adv-x="1222" d="M0 0v1276h106q338 -472 678 -942v926l240 30v-1290h-106l-678 942v-909v-33h-240z" />
<glyph unicode="O" horiz-adv-x="1404" d="M0 638q0 302 31 425q18 75 106.5 129.5t209.5 79.5t260.5 25t260.5 -25t209.5 -79.5t106.5 -129.5q29 -123 29 -424.5t-29 -423.5q-18 -75 -106.5 -129.5t-209.5 -79.5t-260.5 -25t-260.5 25t-209.5 79.5t-106.5 129.5q-31 121 -31 423zM238 639q0 -258 20 -383 q10 -61 63.5 -106t126.5 -65t158 -20t158 20t126.5 65t63.5 106q22 124 22 382.5t-22 381.5q-10 62 -63.5 107t-126.5 65.5t-158 20.5t-158 -20.5t-126.5 -65.5t-63.5 -107q-20 -123 -20 -381z" />
<glyph unicode="P" horiz-adv-x="1204" d="M0 0v1139q61 76 192.5 116.5t290.5 40.5q124 0 234 -24.5t189.5 -75.5t97.5 -121q28 -112 28 -237q0 -126 -28 -238q-27 -103 -177.5 -163t-341.5 -60h-245v-377h-240zM240 465h245q108 0 192.5 47.5t98.5 132.5q17 97 17 193q0 95 -17 192q-14 85 -98.5 132.5 t-192.5 47.5q-141 0 -245 -36v-709z" />
<glyph unicode="Q" horiz-adv-x="1411" d="M6 637q0 299 31 426q19 75 107 129.5t209 80t259 25.5q216 0 383 -62t195 -173q31 -127 31 -426q0 -298 -31 -422q-28 -112 -194.5 -173.5t-383.5 -61.5q-216 0 -381.5 61.5t-193.5 173.5q-31 124 -31 422zM244 639q0 -254 22 -383q10 -62 62.5 -107t126 -65.5 t157.5 -20.5q85 0 158.5 20.5t126.5 65.5t64 107q20 117 20 383q0 264 -20 381q-11 62 -64 106.5t-126.5 65t-158.5 20.5q-84 0 -156.5 -20.5t-125.5 -65t-64 -106.5q-22 -129 -22 -381zM418 -121q144 78 354 78q170 0 286 -55.5t150 -171.5h-288q6 1 18 2t18 2 q-49 129 -225 129q-114 0 -233 -51z" />
<glyph unicode="R" horiz-adv-x="1204" d="M0 0v1139q61 76 192.5 116.5t290.5 40.5q124 0 234 -24.5t189.5 -75.5t97.5 -121q28 -112 28 -237q0 -74 -5 -123.5t-23 -102.5t-50.5 -88.5t-89 -66.5t-137.5 -51l270 -406h-274l-307 465h69q108 0 192.5 47.5t98.5 132.5q17 97 17 193q0 95 -17 192q-14 85 -98.5 132.5 t-192.5 47.5q-141 0 -245 -36v-1174h-240z" />
<glyph unicode="S" horiz-adv-x="1204" d="M0 154l100 57q42 -70 152 -107.5t244 -37.5q135 0 218 60.5t83 145.5q0 77 -73.5 148.5t-221.5 118.5q-240 75 -364 179.5t-124 252.5q2 86 49.5 151t126 102.5t169 55.5t190.5 18q139 0 263.5 -35t193.5 -98l-93 -65q-53 55 -152 82.5t-214 27.5q-135 0 -217 -56.5 t-82 -137.5q0 -74 73 -144.5t216 -113.5q69 -22 121 -41.5t112.5 -48t103 -61t79 -74t55 -94t18.5 -113.5q0 -115 -70 -194t-187 -115.5t-273 -36.5q-167 0 -304 45t-192 129z" />
<glyph unicode="T" horiz-adv-x="1042" d="M0 1190v86h299h541v-86h-299v-748v-2v-440h-242v440v2v748h-299z" />
<glyph unicode="U" horiz-adv-x="1417" d="M0 809q0 81 1 241t1 240l240 -30q0 -79 -2 -238.5t-2 -239.5q0 -388 22 -526q10 -62 63 -107t127 -65.5t158 -20.5q85 0 158 20.5t126 65.5t64 107q25 151 25 598q0 73 -1 219.5t-1 216.5l240 -30v-381q0 -524 -33 -664q-28 -112 -194.5 -173.5t-383.5 -61.5 q-216 0 -381.5 61.5t-193.5 173.5q-33 136 -33 594z" />
<glyph unicode="V" horiz-adv-x="1255" d="M0 1276h252l366 -1129l367 1129h96l-415 -1276h-95h-157z" />
<glyph unicode="W" horiz-adv-x="1585" d="M0 1276h240l2 -31l51 -1007l393 561l391 -561l53 1038h240l-67 -1276h-170l-447 641l-448 -641h-168z" />
<glyph unicode="X" horiz-adv-x="1204" d="M0 0l403 578l-401 698h277l276 -481l336 481h110l-270 -389l-125 -178l408 -709h-277l-282 492l-344 -492h-111z" />
<glyph unicode="Y" horiz-adv-x="1255" d="M0 1276h276l322 -557l365 557h110l-416 -633v-643h-239v551z" />
<glyph unicode="Z" horiz-adv-x="1189" d="M0 0l686 1190h-639v86h967l-686 -1190h651v-86h-979z" />
<glyph unicode="[" horiz-adv-x="602" d="M0 -6v1296v92h416v-92h-217v-1296h217v-90h-217h-199v90z" />
<glyph unicode="\" horiz-adv-x="712" d="M0 1425h96l561 -1554h-96z" />
<glyph unicode="]" horiz-adv-x="614" d="M0 -6h217v1296h-217v92h416v-92v-1296v-90h-199h-217v90z" />
<glyph unicode="^" horiz-adv-x="1021" d="M0 524l332 267h39h67h74l330 -267h-209l-58 47l-155 123l-152 -123l-57 -47h-211z" />
<glyph unicode="_" horiz-adv-x="1243" d="M0 0v90h1047v-90h-1047z" />
<glyph unicode="`" horiz-adv-x="534" d="M0 1284h168l156 -287h-168z" />
<glyph unicode="a" d="M0 444q0 130 27 238q13 54 62 98t120.5 71t157.5 41.5t178 14.5q125 0 234 -24.5t189 -77.5t99 -127q25 -98 25 -215v-463l-240 31q-128 -45 -305 -45q-193 0 -342.5 59t-177.5 164q-27 105 -27 235zM240 444q0 -112 14 -192q14 -85 99.5 -132.5t193.5 -47.5 q189 0 305 65v312q0 109 -14 186q-16 88 -100 136t-193 48q-107 0 -192 -48t-99 -134q-14 -80 -14 -193z" />
<glyph unicode="b" d="M0 440v836l240 -31v-389q131 45 307 45q123 0 232.5 -24.5t188.5 -76t97 -122.5q27 -105 27 -236q0 -129 -27 -237q-28 -108 -177 -168t-341 -60q-124 0 -233 25t-188.5 79t-98.5 128q-27 103 -27 210v21zM240 440q0 -111 14 -188q16 -89 99.5 -137.5t193.5 -48.5 q108 0 191.5 48t99.5 136q14 80 14 192q0 111 -14 191q-14 85 -98.5 133.5t-192.5 48.5q-186 0 -307 -65v-310z" />
<glyph unicode="c" horiz-adv-x="1210" d="M0 444q0 130 27 238q13 54 62 98t120.5 71t157.5 41.5t178 14.5q149 0 278 -37t195 -106l-94 -64q-52 58 -155 89.5t-222 31.5q-109 0 -194 -48.5t-99 -135.5q-14 -80 -14 -193q0 -112 14 -192q14 -85 99.5 -132.5t193.5 -47.5q134 0 243.5 37.5t151.5 107.5l100 -57 q-54 -85 -190 -129.5t-303 -44.5q-124 0 -234 24.5t-190 76t-98 122.5q-27 105 -27 235z" />
<glyph unicode="d" horiz-adv-x="1288" d="M0 442q0 131 27 236q28 105 177.5 164t342.5 59q174 0 305 -45v389l240 31v-836q0 -125 -25 -231q-19 -74 -99 -128t-189 -79t-234 -25q-124 0 -232.5 24.5t-188 77.5t-97.5 126q-27 105 -27 237zM240 442q0 -112 14 -192q10 -59 54.5 -102t105.5 -62.5t131 -19.5 q109 0 193 48.5t100 137.5q14 77 14 188v310q-121 65 -305 65q-108 0 -193.5 -48.5t-99.5 -133.5q-14 -77 -14 -191z" />
<glyph unicode="e" d="M0 444q0 130 27 238q13 54 62 98t120.5 71t157.5 41.5t178 14.5q124 0 233.5 -24.5t190 -77.5t98.5 -127q25 -109 25 -203v-92h-850q4 -90 12 -131q14 -85 99.5 -132.5t193.5 -47.5q134 0 243.5 37.5t151.5 107.5l100 -57q-53 -84 -187.5 -129t-297.5 -45 q-128 0 -238.5 23.5t-191.5 75t-100 124.5q-27 105 -27 235zM240 475h612q0 74 -14 160q-11 59 -56 101.5t-106 62.5t-131 20q-107 0 -192 -48t-99 -134q-11 -65 -14 -162z" />
<glyph unicode="f" horiz-adv-x="724" d="M0 0v836q0 130 27 235q28 108 177 167.5t343 59.5v-88q-108 0 -192.5 -48t-100.5 -134q-14 -80 -14 -192v-361h223v-92h-223v-383h-240z" />
<glyph unicode="g" horiz-adv-x="1288" d="M0 444q0 130 27 238q13 54 62 98t120.5 71t157.5 41.5t178 14.5q125 0 234 -24.5t189 -77.5t99 -127q25 -106 25 -229v-392v-26q-3 -117 -27 -211q-18 -72 -97.5 -124.5t-188.5 -77t-234 -24.5v87q109 0 194 48.5t99 135.5q14 86 14 166q-131 -45 -305 -45 q-193 0 -342.5 59t-177.5 164q-27 105 -27 235zM240 444q0 -112 14 -192q14 -85 99.5 -132.5t193.5 -47.5q189 0 305 65v309q0 109 -14 189q-11 59 -56 101.5t-106 62.5t-131 20q-107 0 -192 -48t-99 -134q-14 -80 -14 -193z" />
<glyph unicode="h" horiz-adv-x="1288" d="M0 0v442v834l240 -31v-389q131 45 307 45q123 0 232.5 -24.5t188.5 -76t97 -122.5q27 -105 27 -236v-442h-240v442q0 114 -14 191q-14 85 -98.5 133.5t-192.5 48.5q-186 0 -307 -65v-310v-409v-31h-240z" />
<glyph unicode="i" horiz-adv-x="440" d="M-12 1071q-6 31 -6 63t6 64q10 38 74 53q31 7 63 8q33 -1 65 -9q64 -16 74 -54q8 -31 8.5 -61.5t-8.5 -59.5q-9 -39 -73 -55q-33 -8 -65 -8t-64 7q-64 15 -74 52zM6 0v883l240 -33v-850h-240z" />
<glyph unicode="j" horiz-adv-x="466" d="M-279 -319q70 0 131 20t106 62.5t56 101.5q15 86 15 192v822l239 -31v-852q-7 -103 -26 -176q-18 -72 -97.5 -124.5t-189 -77t-234.5 -24.5v87zM10 1071q-6 31 -6 63t6 64q10 38 74 53q31 7 63 7q33 0 66 -8q65 -15 74 -54q9 -31 9 -61.5t-9 -59.5q-9 -40 -74 -55 q-33 -8 -66 -8q-32 0 -63 7q-64 15 -74 52z" />
<glyph unicode="k" horiz-adv-x="1067" d="M0 0v1276l240 -31v-880l364 -365h340l-473 473l389 391h-121l-499 -499v-334v-31h-240z" />
<glyph unicode="l" horiz-adv-x="440" d="M0 0v1276l240 -31v-1214v-31h-240z" />
<glyph unicode="m" horiz-adv-x="1974" d="M0 0v868l201 -26q133 59 319 59q114 0 217.5 -25t167.5 -71q66 46 169 71t216 25q172 0 305 -53t158 -148q25 -98 25 -211v-489h-240v489q0 93 -12 166q-8 51 -44 88t-86 54.5t-106 17.5v2q-131 0 -282 -51v-766h-238v514q-3 81 -12 141q-13 76 -81 118t-157 42v2 q-175 0 -280 -51v-416v-350h-240z" />
<glyph unicode="n" horiz-adv-x="1282" d="M0 0v868l203 -26q138 59 344 59q123 0 232.5 -24.5t188.5 -76t97 -122.5q27 -105 27 -236v-442h-240v442q0 114 -14 191q-14 85 -98.5 133.5t-192.5 48.5q-186 0 -307 -65v-400v-350h-240z" />
<glyph unicode="o" horiz-adv-x="1288" d="M1 444.5q0 131.5 26 237.5q18 72 98 124q81 53 189 77q106 24 228 24q3 -1 5 -1q125 0 233.5 -24t188.5 -77.5t98 -126.5q26 -106 26 -234q0 -123 -26 -227q-18 -75 -98 -129t-188.5 -78t-233.5 -24t-233.5 24t-188.5 76t-98 123q-26 104 -26 235.5zM240 444.5 q0 -106.5 14 -192.5q10 -57 55 -99t106.5 -61.5t131.5 -19.5t131.5 19.5t106.5 63.5t55 105q15 92 15 183q0 97 -17 192q-10 60 -55 103t-106 62.5t-131 19.5t-131 -19.5t-106 -62t-55 -101.5q-14 -86 -14 -192.5z" />
<glyph unicode="p" horiz-adv-x="1288" d="M0 -395v835v443l233 -31q137 49 314 49q194 0 342 -59t176 -166q27 -108 27 -238v-22q0 -108 -27 -213q-18 -71 -97 -122.5t-188.5 -76t-232.5 -24.5q-176 0 -307 45v-390zM240 131q121 -65 307 -65q108 0 192.5 48.5t98.5 133.5q14 77 14 190t-14 193q-16 88 -99.5 136 t-191.5 48q-110 0 -193.5 -48.5t-99.5 -137.5q-14 -77 -14 -187v-2v-309z" />
<glyph unicode="q" horiz-adv-x="1288" d="M0 438q0 130 27 238q18 72 97.5 124.5t188 76.5t232.5 24q178 0 315 -49l232 31v-443v-835l-240 30v390q-131 -45 -305 -45q-193 0 -342.5 59t-177.5 164q-27 105 -27 235zM240 438q0 -113 14 -190q14 -85 99.5 -133.5t193.5 -48.5q184 0 305 65v309v2q0 110 -14 187 q-16 89 -100 137.5t-193 48.5q-70 0 -131 -19.5t-105.5 -62.5t-54.5 -102q-14 -80 -14 -193z" />
<glyph unicode="r" horiz-adv-x="802" d="M0 0v444v439l221 -29q139 53 320 53q30 0 92 -4v-86q-58 4 -86 4q-109 0 -194 -48.5t-99 -135.5q-14 -96 -14 -186v-101v-350h-240z" />
<glyph unicode="s" horiz-adv-x="937" d="M0 66l80 53l26 -13q56 -28 128 -42q36 -7 73 -7q37 -1 75 7q76 14 112 63q16 20 25 43.5t7.5 50t-18.5 45.5q-25 27 -87.5 51.5t-126.5 42t-134 52t-107 80.5q-53 64 -53 140q0 70 42 128q44 60 118 90q101 40 236 40q22 0 46 -1q164 -8 275 -68l-72 -61q-7 4 -29.5 11.5 l-25.5 8.5q-56 18 -114 24q-16 2 -34 2q-42 0 -84 -10q-59 -14 -92 -51q-34 -37 -38 -79v-10q0 -37 32 -68q30 -26 98.5 -50.5t133.5 -42t131.5 -54.5t97.5 -87q32 -52 32 -113q-1 -27 -7 -57q-22 -94 -97 -141q-111 -69 -292 -69q-17 0 -35 1q-206 7 -322 91z" />
<glyph unicode="t" horiz-adv-x="829" d="M0 776v92h152v408l239 -31v-377h256v-92h-256v-745v-31h-239v776h-152z" />
<glyph unicode="u" horiz-adv-x="1294" d="M4 444v437l240 -31v-406q4 -121 16 -192q14 -85 98.5 -132.5t192.5 -47.5q191 0 307 65v398v331h240v-848v-14l-230 31q-129 -49 -317 -49q-123 0 -232.5 24.5t-188.5 76t-97 122.5q-29 113 -29 235z" />
<glyph unicode="v" horiz-adv-x="1054" d="M2 866h252l254 -784l256 784h96l-282 -866h-97h-198z" />
<glyph unicode="w" horiz-adv-x="1527" d="M0 866h240l32 -628l392 561l6 -8l387 -553l33 628h239l-43 -848q0 -9 -6 -18h-168l-448 641l-447 -641h-170q-4 12 -4 18z" />
<glyph unicode="x" horiz-adv-x="937" d="M0 866h276l160 -274l193 274h110l-127 -182l-125 -180l291 -504h-278l-164 287l-201 -287h-112l262 375z" />
<glyph unicode="y" horiz-adv-x="1048" d="M0 866h252l256 -784l254 784h96l-358 -1102l-74 -225h-94l149 461h-198z" />
<glyph unicode="z" horiz-adv-x="958" d="M0 0l449 776h-418v90h469h176h102l-448 -776h426v-90h-480h-276z" />
<glyph unicode="{" horiz-adv-x="796" d="M0 647l74 74q8 217 40 383.5t79 204.5q73 57 183 86.5t234 29.5v-86q-71 0 -143 -27t-111 -77q-48 -62 -59 -469l-119 -119l119 -117q11 -410 59 -469q39 -50 111 -77t143 -27v-86q-124 0 -234.5 30t-182.5 87q-48 37 -79.5 203t-39.5 384z" />
<glyph unicode="|" horiz-adv-x="290" d="M0 -129v1554h90v-1554h-90z" />
<glyph unicode="}" horiz-adv-x="743" d="M0 -43q71 0 143 27t111 77q48 59 59 469l119 117l-119 119q-11 407 -59 469q-39 50 -111 77t-143 27v86q124 0 234.5 -29.5t183.5 -86.5q47 -38 79 -204.5t40 -383.5l73 -74l-73 -72q-8 -218 -39.5 -384t-79.5 -203q-72 -57 -183 -87t-235 -30v86z" />
<glyph unicode="~" horiz-adv-x="1175" d="M0 680q72 43 158 52t163.5 -8t163.5 -39t159 -40.5t149.5 -12t136.5 45.5l71 -121q-63 -37 -134.5 -49t-139 -2.5t-137.5 27.5t-138 36.5t-131 29.5t-126 2.5t-115 -42.5z" />
<glyph unicode="&#xa1;" horiz-adv-x="458" d="M8 1071q-17 61 0 121q9 40 73.5 55.5t129 0.5t74.5 -52q13 -64 0 -127q-10 -38 -74 -53t-129 0.5t-74 54.5zM27 2v948h239v-979z" />
<glyph unicode="&#xa2;" horiz-adv-x="1210" d="M1 448.5q0 131.5 26 237.5q18 68 91 118.5t174 76.5t218 30v127h92v-129q133 -6 245 -42.5t171 -98.5l-94 -63q-46 51 -132 81.5t-190 36.5v-745q118 6 210 42.5t130 100.5l100 -57q-50 -78 -169 -122t-271 -52v-119h-92v119q-181 6 -319 65t-164 158q-26 104 -26 235.5z M240 448.5q0 -106.5 14 -192.5q14 -78 86.5 -124t169.5 -54v745q-97 -8 -169.5 -55.5t-86.5 -126.5q-14 -86 -14 -192.5z" />
<glyph unicode="&#xa3;" horiz-adv-x="1003" d="M0 498l23 90h129v121h-138l23 90h115v477l239 -31v-446h230l-21 -90h-209v-121h215l-20 -90h-195v-412h451v-86h-451h-239v20v19v20v21v6v412h-152z" />
<glyph unicode="&#xa4;" horiz-adv-x="854" d="M0 352l88 90q-1 2 -2 8t-2 9q-12 53 -12 119t12 120q0 8 6 17l-90 88l96 96l105 -102q129 35 241 0l105 102l96 -96l-90 -88q6 -9 6 -19q26 -113 2 -233q-4 -14 -8 -21l90 -90l-96 -96l-105 104q-112 -35 -241 0l-105 -104zM211 522q8 -33 59 -47t102.5 0t59.5 49 q13 54 0 109q-8 35 -59.5 49.5t-102.5 0.5t-59 -48q-13 -58 0 -113z" />
<glyph unicode="&#xa5;" horiz-adv-x="1255" d="M0 1276h276l322 -557l365 557h110l-416 -633v-182h189l-23 -90h-166v-121h174l-22 -90h-152v-160h-239v160h-195l23 90h172v121h-178l20 90h158v90z" />
<glyph unicode="&#xa6;" horiz-adv-x="290" d="M0 -129v608h90v-608h-90zM0 799v626h90v-626h-90z" />
<glyph unicode="&#xa7;" horiz-adv-x="1216" d="M-2 -88l100 57q42 -70 152 -107.5t244 -37.5q135 0 218 60t83 145q0 78 -74 150.5t-221 117.5q-488 147 -488 430q0 117 125 223q-125 104 -125 260q2 70 34.5 126.5t84.5 93.5t122 62t143 35.5t151 10.5q142 0 265.5 -33.5t191.5 -97.5l-93 -66q-54 54 -153.5 82.5 t-212.5 28.5q-135 0 -217 -57t-82 -140q0 -74 73 -144.5t216 -113.5q84 -26 144.5 -49t130 -60.5t113 -80t72.5 -104.5t29 -136q0 -67 -28.5 -129t-80.5 -106q109 -109 109 -250q0 -113 -69 -192t-187 -116.5t-274 -37.5q-166 0 -304 45.5t-192 130.5zM246 772 q0 -74 73 -144.5t216 -113.5q158 -49 233 -88q27 46 27 88q0 76 -74 148.5t-221 117.5q-120 36 -221 84q-33 -48 -33 -92z" />
<glyph unicode="&#xa8;" horiz-adv-x="1705" d="M6 1087q-14 53 0 105q8 32 62 45t108 0t62 -45q13 -51 0 -102q-8 -33 -62 -46.5t-108 -0.5t-62 44zM446 1087q-14 53 0 105q8 32 62 45t108 0t62 -45q13 -51 0 -102q-8 -33 -62 -46.5t-108 -0.5t-62 44z" />
<glyph unicode="&#xab;" horiz-adv-x="1175" d="M0 578l256 276h279l-259 -276l259 -275h-279zM430 578l256 276h279l-258 -276l258 -275h-279z" />
<glyph unicode="&#xad;" horiz-adv-x="1003" d="M0 510v137h774v-137h-774z" />
<glyph unicode="&#xb0;" horiz-adv-x="593" d="M-1 1145q0 50 9 90q8 32 44.5 54t84.5 27t96 -0.5t84.5 -27.5t44.5 -55q17 -85 0 -174q-10 -42 -63 -65t-114 -22.5t-114 23t-63 62.5q-9 38 -9 88zM98 1102q6 -26 46.5 -37t81 0t46.5 39q10 42 0 84q-6 27 -46.5 38t-81 0.5t-46.5 -36.5q-10 -46 0 -88z" />
<glyph unicode="&#xb1;" horiz-adv-x="974" d="M0 -2v137h317h138h319v-137h-319h-138h-317zM0 571v138h317v317h138v-317h319v-138h-319v-317h-138v317h-317z" />
<glyph unicode="&#xb4;" horiz-adv-x="509" d="M0 997l156 287h168l-156 -287h-168z" />
<glyph unicode="&#xbb;" horiz-adv-x="1157" d="M0 303l258 275l-258 276h279l256 -276l-256 -275h-279zM430 303l258 275l-258 276h279l256 -276l-256 -275h-279z" />
<glyph unicode="&#xbf;" horiz-adv-x="1198" d="M0 375q0 166 154 305q40 36 96 68.5t98 51t109 44.5v153h239v-288q-29 -12 -88 -32.5t-93 -34.5t-78.5 -36t-77.5 -50t-58 -64q-49 -73 -49 -154q0 -106 81.5 -183t215.5 -77q117 0 216.5 27.5t152.5 82.5l92 -65q-68 -64 -192 -97.5t-265 -33.5q-130 0 -236.5 31 t-175 84t-105 121.5t-36.5 146.5zM430 1180q0 65 34.5 94t113.5 29q81 0 112 -28.5t31 -94.5t-31.5 -94.5t-111.5 -28.5q-51 0 -92 16t-48 45q-8 36 -8 62z" />
<glyph unicode="&#xc0;" horiz-adv-x="1226" d="M0 0v1116v23q53 68 167.5 109.5t247 47t259 -14t218.5 -74.5t112 -132q25 -90 28 -221v-16v-45v-793h-239v526h-553v-526h-240zM240 616h553v177v61q-3 104 -17 176q-14 85 -98.5 132.5t-192.5 47.5q-141 0 -245 -36v-558zM287 1694h168l155 -287h-168z" />
<glyph unicode="&#xc1;" horiz-adv-x="1226" d="M0 0v1116v23q53 68 167.5 109.5t247 47t259 -14t218.5 -74.5t112 -132q25 -90 28 -221v-16v-45v-793h-239v526h-553v-526h-240zM240 616h553v177v61q-3 104 -17 176q-14 85 -98.5 132.5t-192.5 47.5q-141 0 -245 -36v-558zM410 1407l155 287h168l-155 -287h-168z" />
<glyph unicode="&#xc2;" horiz-adv-x="1226" d="M0 0v1116v23q53 68 167.5 109.5t247 47t259 -14t218.5 -74.5t112 -132q25 -90 28 -221v-16v-45v-793h-239v526h-553v-526h-240zM186 1448l256 205h29h53h56l254 -205h-160l-45 37l-119 94l-117 -94l-45 -37h-162zM240 616h553v177v61q-3 104 -17 176q-14 85 -98.5 132.5 t-192.5 47.5q-141 0 -245 -36v-558z" />
<glyph unicode="&#xc3;" horiz-adv-x="1226" d="M0 0v1116v23q53 68 167.5 109.5t247 47t259 -14t218.5 -74.5t112 -132q25 -90 28 -221v-16v-45v-793h-239v526h-553v-526h-240zM125 1597q66 39 145.5 41t153.5 -17.5t146.5 -40t144 -20.5t125.5 35l55 -92q-66 -39 -145 -41.5t-152 17.5t-144.5 40t-142.5 20.5 t-125 -34.5zM240 616h553v177v61q-3 104 -17 176q-14 85 -98.5 132.5t-192.5 47.5q-141 0 -245 -36v-558z" />
<glyph unicode="&#xc4;" horiz-adv-x="1226" d="M0 0v1116v23q53 68 167.5 109.5t247 47t259 -14t218.5 -74.5t112 -132q25 -90 28 -221v-16v-45v-793h-239v526h-553v-526h-240zM174 1497q-14 53 0 105q8 32 62 45t108 0t62 -45q13 -52 0 -103q-8 -33 -62 -46t-108 -0.5t-62 44.5zM240 616h553v177v61q-3 104 -17 176 q-14 85 -98.5 132.5t-192.5 47.5q-141 0 -245 -36v-558zM614 1497q-14 53 0 105q8 32 62 45t108 0t62 -45q13 -52 0 -103q-8 -33 -62 -46t-108 -0.5t-62 44.5z" />
<glyph unicode="&#xc5;" horiz-adv-x="1226" d="M0 0v1116v23q53 68 167.5 109.5t247 47t259 -14t218.5 -74.5t112 -132q25 -90 28 -221v-16v-45v-793h-239v526h-553v-526h-240zM240 616h553v177v61q-3 104 -17 176q-14 85 -98.5 132.5t-192.5 47.5q-141 0 -245 -36v-558zM321 1554.5q0 50.5 9 90.5q13 54 95 75t164 -1 t95 -77q17 -85 0 -174q-10 -42 -63 -65t-114 -22.5t-114 23t-63 62.5q-9 38 -9 88.5zM420 1511q6 -26 46.5 -37t81 0t46.5 39q10 42 0 84q-6 27 -46.5 38t-81 0.5t-46.5 -36.5q-10 -46 0 -88z" />
<glyph unicode="&#xc6;" horiz-adv-x="1875" d="M0 0v1139q52 67 165.5 107.5t241.5 48t258.5 -14t217.5 -70.5q150 88 422 88h344v-88h-334q-176 0 -277 -36v-420h463v-88h-463v-226q0 -85 15 -192q10 -57 55.5 -99t107 -61.5t130.5 -19.5q181 0 296 59l66 -78q-144 -69 -362 -69q-193 0 -343 59t-178 164 q-26 104 -26 237v13h-6v73h-553v-526h-240zM240 616h553v238q-3 104 -17 176q-14 85 -98.5 132.5t-192.5 47.5q-141 0 -245 -36v-558z" />
<glyph unicode="&#xc7;" horiz-adv-x="1234" d="M0 406v442q0 130 27 235q28 105 178.5 164.5t343.5 59.5q142 0 265.5 -33.5t191.5 -97.5l-93 -66q-54 54 -153.5 82.5t-212.5 28.5q-108 0 -193.5 -48.5t-99.5 -134.5q-14 -96 -14 -190v-402q0 -113 14 -190q10 -57 55.5 -99t107 -61.5t130.5 -19.5q134 0 243.5 37.5 t151.5 107.5l100 -57q-51 -77 -168.5 -121.5t-265.5 -52.5q0 -145 -55 -250h-115q53 64 64 250q-116 5 -215 30.5t-170.5 75.5t-89.5 117q-21 84 -27 193z" />
<glyph unicode="&#xc8;" horiz-adv-x="1048" d="M0 440v699q63 81 198.5 120t307.5 39h39h305v-88h-305h-29q-175 0 -276 -36v-420h462v-88h-462v-226q0 -92 14 -192q10 -57 55.5 -99t107 -61.5t130.5 -19.5q182 0 297 59l65 -78q-144 -69 -362 -69q-193 0 -342.5 59t-177.5 164q-27 108 -27 237zM246 1694h168l155 -287 h-168z" />
<glyph unicode="&#xc9;" horiz-adv-x="1048" d="M0 440v699q63 81 198.5 120t307.5 39h39h305v-88h-305h-29q-175 0 -276 -36v-420h462v-88h-462v-226q0 -92 14 -192q10 -57 55.5 -99t107 -61.5t130.5 -19.5q182 0 297 59l65 -78q-144 -69 -362 -69q-193 0 -342.5 59t-177.5 164q-27 108 -27 237zM362 1407l156 287h168 l-156 -287h-168z" />
<glyph unicode="&#xca;" horiz-adv-x="1048" d="M0 440v699q63 81 198.5 120t307.5 39h39h305v-88h-305h-29q-175 0 -276 -36v-420h462v-88h-462v-226q0 -92 14 -192q10 -57 55.5 -99t107 -61.5t130.5 -19.5q182 0 297 59l65 -78q-144 -69 -362 -69q-193 0 -342.5 59t-177.5 164q-27 108 -27 237zM139 1448l256 205h29 h53h55l254 -205h-159l-45 37l-119 94l-117 -94l-45 -37h-162z" />
<glyph unicode="&#xcb;" horiz-adv-x="1048" d="M0 440v699q63 81 198.5 120t307.5 39h39h305v-88h-305h-29q-175 0 -276 -36v-420h462v-88h-462v-226q0 -92 14 -192q10 -57 55.5 -99t107 -61.5t130.5 -19.5q182 0 297 59l65 -78q-144 -69 -362 -69q-193 0 -342.5 59t-177.5 164q-27 108 -27 237zM127 1497q-14 53 0 105 q8 32 61.5 45t107.5 0t62 -45q13 -52 0 -103q-8 -33 -62 -46t-107.5 -0.5t-61.5 44.5zM567 1497q-14 53 0 105q8 32 62 45t108 0t62 -45q13 -52 0 -103q-8 -33 -62 -46t-108 -0.5t-62 44.5z" />
<glyph unicode="&#xcc;" horiz-adv-x="430" d="M-113 1694h168l156 -287h-168zM0 0v1290l240 -30v-1260h-240z" />
<glyph unicode="&#xcd;" horiz-adv-x="430" d="M0 0v1290l240 -30v-1260h-240zM35 1407l155 287h168l-155 -287h-168z" />
<glyph unicode="&#xce;" horiz-adv-x="430" d="M-211 1448l256 205h29h53h55l254 -205h-160l-45 37l-118 94l-117 -94l-45 -37h-162zM0 0v1290l240 -30v-1260h-240z" />
<glyph unicode="&#xcf;" horiz-adv-x="430" d="M-223 1497q-14 53 0 105q8 32 61.5 45t107.5 0t62 -45q13 -52 0 -103q-8 -33 -62 -46t-107.5 -0.5t-61.5 44.5zM0 0v1290l240 -30v-1260h-240zM217 1497q-14 53 0 105q8 32 62 45t108 0t62 -45q13 -52 0 -103q-8 -33 -62 -46t-108 -0.5t-62 44.5z" />
<glyph unicode="&#xd0;" horiz-adv-x="1413" d="M0 571v93h186v475q60 76 192.5 116.5t291.5 40.5q124 0 233.5 -24.5t188.5 -75.5t98 -121q29 -123 29 -227v-410q-3 -112 -29 -215q-18 -71 -97 -122.5t-188 -76t-233 -24.5h-486v571h-186zM426 86h246q108 0 192.5 48.5t98.5 133.5q16 110 16 189v391q0 72 -16 182 q-14 85 -98.5 132.5t-192.5 47.5q-142 0 -246 -36v-510h184v-93h-184v-485z" />
<glyph unicode="&#xd1;" horiz-adv-x="1222" d="M0 0v1276h106q338 -472 678 -942v926l240 30v-1290h-106l-678 942v-909v-33h-240zM119 1597q66 39 145.5 41t153.5 -17.5t146.5 -40t144 -20.5t125.5 35l55 -92q-66 -39 -145 -41.5t-152 17.5t-144.5 40t-142.5 20.5t-125 -34.5z" />
<glyph unicode="&#xd2;" horiz-adv-x="1404" d="M0 638q0 302 31 425q18 75 106.5 129.5t209.5 79.5t260.5 25t260.5 -25t209.5 -79.5t106.5 -129.5q29 -123 29 -424.5t-29 -423.5q-18 -75 -106.5 -129.5t-209.5 -79.5t-260.5 -25t-260.5 25t-209.5 79.5t-106.5 129.5q-31 121 -31 423zM238 639q0 -258 20 -383 q10 -61 63.5 -106t126.5 -65t158 -20t158 20t126.5 65t63.5 106q22 124 22 382.5t-22 381.5q-10 62 -63.5 107t-126.5 65.5t-158 20.5t-158 -20.5t-126.5 -65.5t-63.5 -107q-20 -123 -20 -381zM377 1694h168l155 -287h-168z" />
<glyph unicode="&#xd3;" horiz-adv-x="1404" d="M0 638q0 302 31 425q18 75 106.5 129.5t209.5 79.5t260.5 25t260.5 -25t209.5 -79.5t106.5 -129.5q29 -123 29 -424.5t-29 -423.5q-18 -75 -106.5 -129.5t-209.5 -79.5t-260.5 -25t-260.5 25t-209.5 79.5t-106.5 129.5q-31 121 -31 423zM238 639q0 -258 20 -383 q10 -61 63.5 -106t126.5 -65t158 -20t158 20t126.5 65t63.5 106q22 124 22 382.5t-22 381.5q-10 62 -63.5 107t-126.5 65.5t-158 20.5t-158 -20.5t-126.5 -65.5t-63.5 -107q-20 -123 -20 -381zM500 1407l155 287h168l-155 -287h-168z" />
<glyph unicode="&#xd4;" horiz-adv-x="1404" d="M0 638q0 302 31 425q18 75 106.5 129.5t209.5 79.5t260.5 25t260.5 -25t209.5 -79.5t106.5 -129.5q29 -123 29 -424.5t-29 -423.5q-18 -75 -106.5 -129.5t-209.5 -79.5t-260.5 -25t-260.5 25t-209.5 79.5t-106.5 129.5q-31 121 -31 423zM238 639q0 -258 20 -383 q10 -61 63.5 -106t126.5 -65t158 -20t158 20t126.5 65t63.5 106q22 124 22 382.5t-22 381.5q-10 62 -63.5 107t-126.5 65.5t-158 20.5t-158 -20.5t-126.5 -65.5t-63.5 -107q-20 -123 -20 -381zM276 1448l256 205h29h53h56l254 -205h-160l-45 37l-119 94l-117 -94l-45 -37 h-162z" />
<glyph unicode="&#xd5;" horiz-adv-x="1404" d="M0 638q0 302 31 425q18 75 106.5 129.5t209.5 79.5t260.5 25t260.5 -25t209.5 -79.5t106.5 -129.5q29 -123 29 -424.5t-29 -423.5q-18 -75 -106.5 -129.5t-209.5 -79.5t-260.5 -25t-260.5 25t-209.5 79.5t-106.5 129.5q-31 121 -31 423zM225 1597q66 39 145.5 41 t153.5 -17.5t146.5 -40t144 -20.5t125.5 35l55 -92q-66 -39 -145 -41.5t-152 17.5t-144 40t-142 20.5t-125 -34.5zM238 639q0 -258 20 -383q10 -61 63.5 -106t126.5 -65t158 -20t158 20t126.5 65t63.5 106q22 124 22 382.5t-22 381.5q-10 62 -63.5 107t-126.5 65.5 t-158 20.5t-158 -20.5t-126.5 -65.5t-63.5 -107q-20 -123 -20 -381z" />
<glyph unicode="&#xd6;" horiz-adv-x="1404" d="M0 638q0 302 31 425q18 75 106.5 129.5t209.5 79.5t260.5 25t260.5 -25t209.5 -79.5t106.5 -129.5q29 -123 29 -424.5t-29 -423.5q-18 -75 -106.5 -129.5t-209.5 -79.5t-260.5 -25t-260.5 25t-209.5 79.5t-106.5 129.5q-31 121 -31 423zM238 639q0 -258 20 -383 q10 -61 63.5 -106t126.5 -65t158 -20t158 20t126.5 65t63.5 106q22 124 22 382.5t-22 381.5q-10 62 -63.5 107t-126.5 65.5t-158 20.5t-158 -20.5t-126.5 -65.5t-63.5 -107q-20 -123 -20 -381zM264 1497q-14 53 0 105q8 32 62 45t108 0t62 -45q13 -52 0 -103q-8 -33 -62 -46 t-108 -0.5t-62 44.5zM705 1497q-14 53 0 105q8 32 61.5 45t107.5 0t62 -45q13 -52 0 -103q-8 -33 -62 -46t-107.5 -0.5t-61.5 44.5z" />
<glyph unicode="&#xd7;" horiz-adv-x="821" d="M0 352l225 226l-225 225l96 96l226 -225l225 225l96 -96l-225 -225l225 -226l-96 -96l-225 225l-226 -225z" />
<glyph unicode="&#xd8;" horiz-adv-x="1404" d="M0 638q0 302 31 425q16 69 92 121t182 77t232 34t243 -9l51 139h97l-58 -155q127 -28 211.5 -80.5t102.5 -126.5q29 -123 29 -424.5t-29 -423.5q-17 -71 -96 -124t-189 -77.5t-239.5 -31.5t-247.5 14l-45 -125h-97l52 141q-259 63 -291 203q-31 121 -31 423zM238 639 q0 -258 20 -383q11 -81 102 -135l388 1075q-73 21 -155 17t-153 -23.5t-121.5 -64.5t-60.5 -105q-20 -123 -20 -381zM444 86q74 -22 159 -22t159 20t128 65t64 107q22 124 22 382.5t-22 381.5q-17 91 -120 145z" />
<glyph unicode="&#xd9;" horiz-adv-x="1417" d="M0 809q0 81 1 241t1 240l240 -30q0 -79 -2 -238.5t-2 -239.5q0 -388 22 -526q10 -62 63 -107t127 -65.5t158 -20.5q85 0 158 20.5t126 65.5t64 107q25 151 25 598q0 73 -1 219.5t-1 216.5l240 -30v-381q0 -524 -33 -664q-28 -112 -194.5 -173.5t-383.5 -61.5 q-216 0 -381.5 61.5t-193.5 173.5q-33 136 -33 594zM383 1694h168l156 -287h-168z" />
<glyph unicode="&#xda;" horiz-adv-x="1417" d="M0 809q0 81 1 241t1 240l240 -30q0 -79 -2 -238.5t-2 -239.5q0 -388 22 -526q10 -62 63 -107t127 -65.5t158 -20.5q85 0 158 20.5t126 65.5t64 107q25 151 25 598q0 73 -1 219.5t-1 216.5l240 -30v-381q0 -524 -33 -664q-28 -112 -194.5 -173.5t-383.5 -61.5 q-216 0 -381.5 61.5t-193.5 173.5q-33 136 -33 594zM506 1407l156 287h167l-155 -287h-168z" />
<glyph unicode="&#xdb;" horiz-adv-x="1417" d="M0 809q0 81 1 241t1 240l240 -30q0 -79 -2 -238.5t-2 -239.5q0 -388 22 -526q10 -62 63 -107t127 -65.5t158 -20.5q85 0 158 20.5t126 65.5t64 107q25 151 25 598q0 73 -1 219.5t-1 216.5l240 -30v-381q0 -524 -33 -664q-28 -112 -194.5 -173.5t-383.5 -61.5 q-216 0 -381.5 61.5t-193.5 173.5q-33 136 -33 594zM283 1448l256 205h28h54h55l254 -205h-160l-45 37l-119 94l-117 -94l-45 -37h-161z" />
<glyph unicode="&#xdc;" horiz-adv-x="1417" d="M0 809q0 81 1 241t1 240l240 -30q0 -79 -2 -238.5t-2 -239.5q0 -388 22 -526q10 -62 63 -107t127 -65.5t158 -20.5q85 0 158 20.5t126 65.5t64 107q25 151 25 598q0 73 -1 219.5t-1 216.5l240 -30v-381q0 -524 -33 -664q-28 -112 -194.5 -173.5t-383.5 -61.5 q-216 0 -381.5 61.5t-193.5 173.5q-33 136 -33 594zM270 1497q-14 53 0 105q8 32 62 45t108 0t62 -45q13 -52 0 -103q-8 -33 -62 -46t-108 -0.5t-62 44.5zM711 1497q-14 53 0 105q8 32 61.5 45t107.5 0t62 -45q13 -52 0 -103q-8 -33 -62 -46t-107.5 -0.5t-61.5 44.5z" />
<glyph unicode="&#xdd;" horiz-adv-x="1255" d="M0 1276h276l322 -557l365 557h110l-416 -633v-643h-239v551zM465 1407l156 287h167l-155 -287h-168z" />
<glyph unicode="&#xde;" horiz-adv-x="1284" d="M0 0v451v835l240 -33v-252q134 46 307 46q191 0 341 -60t177 -164q27 -105 27 -237q0 -131 -27 -236q-18 -71 -97 -122.5t-188.5 -76t-232.5 -24.5q-176 0 -307 45v-172h-240zM240 279q123 -66 307 -66q107 0 192 49t99 133q14 80 14 191q0 112 -14 192q-14 84 -99 133.5 t-192 49.5q-184 0 -307 -66v-616z" />
<glyph unicode="&#xdf;" horiz-adv-x="1263" d="M0 -250v711v112v584q64 81 201 120.5t313 39.5q114 0 214 -19.5t174 -62t91 -102.5q19 -71 19 -125q0 -103 -45 -166.5t-152 -104.5q82 -22 136.5 -55.5t83.5 -79.5t40.5 -96.5t11.5 -118.5q0 -72 -22 -162q-28 -108 -176.5 -167.5t-341.5 -59.5q-117 0 -230 25l37 110 q75 -47 193 -47q149 0 226 76t77 225q0 147 -76.5 223t-226.5 76h-2h-305v-113v-118v-729zM240 772h321q122 6 184 67.5t62 168.5q0 100 -46.5 153t-148.5 66q-27 4 -94 4q-174 0 -278 -39v-420z" />
<glyph unicode="&#xe0;" d="M0 444q0 130 27 238q13 54 62 98t120.5 71t157.5 41.5t178 14.5q125 0 234 -24.5t189 -77.5t99 -127q25 -98 25 -215v-463l-240 31q-128 -45 -305 -45q-193 0 -342.5 59t-177.5 164q-27 105 -27 235zM240 444q0 -112 14 -192q14 -85 99.5 -132.5t193.5 -47.5 q189 0 305 65v312q0 109 -14 186q-16 88 -100 136t-193 48q-107 0 -192 -48t-99 -134q-14 -80 -14 -193zM322 1284h167l156 -287h-168z" />
<glyph unicode="&#xe1;" d="M0 444q0 130 27 238q13 54 62 98t120.5 71t157.5 41.5t178 14.5q125 0 234 -24.5t189 -77.5t99 -127q25 -98 25 -215v-463l-240 31q-128 -45 -305 -45q-193 0 -342.5 59t-177.5 164q-27 105 -27 235zM240 444q0 -112 14 -192q14 -85 99.5 -132.5t193.5 -47.5 q189 0 305 65v312q0 109 -14 186q-16 88 -100 136t-193 48q-107 0 -192 -48t-99 -134q-14 -80 -14 -193zM475 997l156 287h168l-156 -287h-168z" />
<glyph unicode="&#xe2;" d="M0 444q0 130 27 238q13 54 62 98t120.5 71t157.5 41.5t178 14.5q125 0 234 -24.5t189 -77.5t99 -127q25 -98 25 -215v-463l-240 31q-128 -45 -305 -45q-193 0 -342.5 59t-177.5 164q-27 105 -27 235zM231 1038l256 205h29h53h56l254 -205h-160l-45 37l-119 94l-117 -94 l-45 -37h-162zM240 444q0 -112 14 -192q14 -85 99.5 -132.5t193.5 -47.5q189 0 305 65v312q0 109 -14 186q-16 88 -100 136t-193 48q-107 0 -192 -48t-99 -134q-14 -80 -14 -193z" />
<glyph unicode="&#xe3;" d="M0 444q0 130 27 238q13 54 62 98t120.5 71t157.5 41.5t178 14.5q125 0 234 -24.5t189 -77.5t99 -127q25 -98 25 -215v-463l-240 31q-128 -45 -305 -45q-193 0 -342.5 59t-177.5 164q-27 105 -27 235zM170 1188q66 39 145.5 41t153.5 -17.5t146.5 -40t144 -20.5t125.5 35 l55 -92q-66 -39 -145 -41.5t-152 17.5t-144.5 40t-142.5 20.5t-125 -34.5zM240 444q0 -112 14 -192q14 -85 99.5 -132.5t193.5 -47.5q189 0 305 65v312q0 109 -14 186q-16 88 -100 136t-193 48q-107 0 -192 -48t-99 -134q-14 -80 -14 -193z" />
<glyph unicode="&#xe4;" d="M0 444q0 130 27 238q13 54 62 98t120.5 71t157.5 41.5t178 14.5q125 0 234 -24.5t189 -77.5t99 -127q25 -98 25 -215v-463l-240 31q-128 -45 -305 -45q-193 0 -342.5 59t-177.5 164q-27 105 -27 235zM211 1087q-14 53 0 105q8 32 61.5 45t107.5 0t62 -45q13 -51 0 -102 q-8 -33 -62 -46.5t-107.5 -0.5t-61.5 44zM240 444q0 -112 14 -192q14 -85 99.5 -132.5t193.5 -47.5q189 0 305 65v312q0 109 -14 186q-16 88 -100 136t-193 48q-107 0 -192 -48t-99 -134q-14 -80 -14 -193zM651 1087q-14 53 0 105q8 32 62 45t108 0t62 -45q13 -51 0 -102 q-8 -33 -62 -46.5t-108 -0.5t-62 44z" />
<glyph unicode="&#xe5;" d="M0 444q0 130 27 238q13 54 62 98t120.5 71t157.5 41.5t178 14.5q125 0 234 -24.5t189 -77.5t99 -127q25 -98 25 -215v-463l-240 31q-128 -45 -305 -45q-193 0 -342.5 59t-177.5 164q-27 105 -27 235zM240 444q0 -112 14 -192q14 -85 99.5 -132.5t193.5 -47.5 q189 0 305 65v312q0 109 -14 186q-16 88 -100 136t-193 48q-107 0 -192 -48t-99 -134q-14 -80 -14 -193zM349 1145q0 50 9 90q8 32 44.5 54t85 27t96.5 -0.5t84.5 -27.5t44.5 -55q17 -85 0 -174q-10 -42 -63.5 -65t-114.5 -22.5t-114 23t-63 62.5q-9 38 -9 88zM449 1102 q6 -26 46.5 -37t81 0t46.5 39q10 42 0 84q-6 27 -46.5 38t-81 0.5t-46.5 -36.5q-10 -46 0 -88z" />
<glyph unicode="&#xe6;" horiz-adv-x="2136" d="M0 444q0 130 27 238q13 54 62 98t120.5 71t157.5 41.5t178 14.5q128 0 241.5 -26.5t186.5 -77.5q71 51 184.5 77.5t241.5 26.5q124 0 233.5 -24.5t190 -77.5t98.5 -127q25 -109 25 -203v-92h-850q4 -90 12 -131q14 -85 99.5 -132.5t193.5 -47.5q134 0 243.5 37.5 t151.5 107.5l100 -57q-53 -84 -187.5 -129t-297.5 -45q-185 0 -319 45v-31l-240 31q-128 -45 -305 -45q-193 0 -342.5 59t-177.5 164q-27 105 -27 235zM240 444q0 -112 14 -192q14 -85 99.5 -132.5t193.5 -47.5q189 0 305 65v312q0 109 -14 186q-16 88 -100 136t-193 48 q-107 0 -192 -48t-99 -134q-14 -80 -14 -193zM1094 475h612q0 74 -14 160q-11 59 -56 101.5t-106 62.5t-131 20q-107 0 -192 -48t-99 -134q-11 -65 -14 -162z" />
<glyph unicode="&#xe7;" horiz-adv-x="1210" d="M0 453q0 130 27 235q18 73 97 125t187.5 76t233.5 24q149 0 277.5 -36.5t195.5 -104.5l-94 -63q-52 58 -154.5 88t-222.5 30q-109 0 -194 -48t-99 -134q-14 -80 -14 -192q0 -113 14 -193q14 -85 99.5 -132.5t193.5 -47.5q134 0 243.5 37.5t151.5 107.5l100 -57 q-48 -74 -159 -118.5t-252 -53.5q0 -148 -58 -252h-114q54 65 65 250q-120 2 -224 27t-179.5 75.5t-93.5 118.5q-27 105 -27 238z" />
<glyph unicode="&#xe8;" d="M0 444q0 130 27 238q13 54 62 98t120.5 71t157.5 41.5t178 14.5q124 0 233.5 -24.5t190 -77.5t98.5 -127q25 -109 25 -203v-92h-850q4 -90 12 -131q14 -85 99.5 -132.5t193.5 -47.5q134 0 243.5 37.5t151.5 107.5l100 -57q-53 -84 -187.5 -129t-297.5 -45 q-128 0 -238.5 23.5t-191.5 75t-100 124.5q-27 105 -27 235zM240 475h612q0 74 -14 160q-11 59 -56 101.5t-106 62.5t-131 20q-107 0 -192 -48t-99 -134q-11 -65 -14 -162zM322 1284h167l156 -287h-168z" />
<glyph unicode="&#xe9;" d="M0 444q0 130 27 238q13 54 62 98t120.5 71t157.5 41.5t178 14.5q124 0 233.5 -24.5t190 -77.5t98.5 -127q25 -109 25 -203v-92h-850q4 -90 12 -131q14 -85 99.5 -132.5t193.5 -47.5q134 0 243.5 37.5t151.5 107.5l100 -57q-53 -84 -187.5 -129t-297.5 -45 q-128 0 -238.5 23.5t-191.5 75t-100 124.5q-27 105 -27 235zM240 475h612q0 74 -14 160q-11 59 -56 101.5t-106 62.5t-131 20q-107 0 -192 -48t-99 -134q-11 -65 -14 -162zM475 997l156 287h168l-156 -287h-168z" />
<glyph unicode="&#xea;" d="M0 444q0 130 27 238q13 54 62 98t120.5 71t157.5 41.5t178 14.5q124 0 233.5 -24.5t190 -77.5t98.5 -127q25 -109 25 -203v-92h-850q4 -90 12 -131q14 -85 99.5 -132.5t193.5 -47.5q134 0 243.5 37.5t151.5 107.5l100 -57q-53 -84 -187.5 -129t-297.5 -45 q-128 0 -238.5 23.5t-191.5 75t-100 124.5q-27 105 -27 235zM227 1038l256 205h29h53h56l253 -205h-159l-45 37l-119 94l-117 -94l-45 -37h-162zM240 475h612q0 74 -14 160q-11 59 -56 101.5t-106 62.5t-131 20q-107 0 -192 -48t-99 -134q-11 -65 -14 -162z" />
<glyph unicode="&#xeb;" d="M0 444q0 130 27 238q13 54 62 98t120.5 71t157.5 41.5t178 14.5q124 0 233.5 -24.5t190 -77.5t98.5 -127q25 -109 25 -203v-92h-850q4 -90 12 -131q14 -85 99.5 -132.5t193.5 -47.5q134 0 243.5 37.5t151.5 107.5l100 -57q-53 -84 -187.5 -129t-297.5 -45 q-128 0 -238.5 23.5t-191.5 75t-100 124.5q-27 105 -27 235zM211 1087q-14 53 0 105q8 32 61.5 45t107.5 0t62 -45q13 -51 0 -102q-8 -33 -62 -46.5t-107.5 -0.5t-61.5 44zM240 475h612q0 74 -14 160q-11 59 -56 101.5t-106 62.5t-131 20q-107 0 -192 -48t-99 -134 q-11 -65 -14 -162zM651 1087q-14 53 0 105q8 32 62 45t108 0t62 -45q13 -51 0 -102q-8 -33 -62 -46.5t-108 -0.5t-62 44z" />
<glyph unicode="&#xec;" horiz-adv-x="468" d="M-78 1284h168l156 -287h-168zM35 0v883l239 -33v-850h-239z" />
<glyph unicode="&#xed;" horiz-adv-x="440" d="M6 0v883l240 -33v-850h-240zM51 997l156 287h168l-156 -287h-168z" />
<glyph unicode="&#xee;" horiz-adv-x="673" d="M-74 1038l256 205h29h53h55l254 -205h-159l-45 37l-119 94l-117 -94l-45 -37h-162zM123 0v883l239 -33v-850h-239z" />
<glyph unicode="&#xef;" horiz-adv-x="790" d="M-31 1087q-14 53 0 105q8 32 62 45t108 0t62 -45q13 -51 0 -102q-8 -33 -62 -46.5t-108 -0.5t-62 44zM182 0v883l240 -33v-850h-240zM410 1087q-14 53 0 105q8 32 62 45t107.5 0t61.5 -45q13 -51 0 -102q-8 -33 -62 -46.5t-107.5 -0.5t-61.5 44z" />
<glyph unicode="&#xf0;" horiz-adv-x="1390" d="M0 442q0 131 27 236q28 105 177.5 164t342.5 59q174 0 305 -45v166h-176v76h176v147l240 31v-178h133v-76h-133v-582q0 -125 -25 -231q-19 -74 -99 -128t-189 -79t-234 -25q-124 0 -232.5 24.5t-188 77.5t-97.5 126q-27 105 -27 237zM240 442q0 -112 14 -192 q10 -59 54.5 -102t105.5 -62.5t131 -19.5q109 0 193 48.5t100 137.5q14 77 14 188v310q-121 65 -305 65q-108 0 -193.5 -48.5t-99.5 -133.5q-14 -77 -14 -191z" />
<glyph unicode="&#xf1;" horiz-adv-x="1282" d="M0 0v868l203 -26q138 59 344 59q123 0 232.5 -24.5t188.5 -76t97 -122.5q27 -105 27 -236v-442h-240v442q0 114 -14 191q-14 85 -98.5 133.5t-192.5 48.5q-186 0 -307 -65v-400v-350h-240zM154 1188q66 39 145.5 41t153.5 -17.5t146 -40t143.5 -20.5t125.5 35l56 -92 q-66 -39 -145 -41.5t-152 17.5t-144.5 40t-142.5 20.5t-125 -34.5z" />
<glyph unicode="&#xf2;" horiz-adv-x="1288" d="M1 444.5q0 131.5 26 237.5q18 72 98 124.5t188.5 76.5t233.5 23.5t233.5 -24.5t188.5 -77.5t98 -126.5q25 -104 25.5 -229.5t-25.5 -231.5q-18 -75 -98 -129t-188.5 -78t-233.5 -24t-233.5 24t-188.5 76t-98 123q-26 104 -26 235.5zM240 444.5q0 -106.5 14 -192.5 q10 -57 55 -99t106.5 -61.5t131.5 -19.5t131.5 19.5t106.5 63.5t55 105q30 191 -2 375q-10 60 -55 103t-106 62.5t-131 19.5t-131 -19.5t-106 -62t-55 -101.5q-14 -86 -14 -192.5zM313 1284h168l156 -287h-168z" />
<glyph unicode="&#xf3;" horiz-adv-x="1288" d="M1 444.5q0 131.5 26 237.5q18 72 98 124.5t188.5 76.5t233.5 23.5t233.5 -24.5t188.5 -77.5t98 -126.5q25 -104 25.5 -229.5t-25.5 -231.5q-18 -75 -98 -129t-188.5 -78t-233.5 -24t-233.5 24t-188.5 76t-98 123q-26 104 -26 235.5zM240 444.5q0 -106.5 14 -192.5 q10 -57 55 -99t106.5 -61.5t131.5 -19.5t131.5 19.5t106.5 63.5t55 105q30 191 -2 375q-10 60 -55 103t-106 62.5t-131 19.5t-131 -19.5t-106 -62t-55 -101.5q-14 -86 -14 -192.5zM471 997l156 287h168l-156 -287h-168z" />
<glyph unicode="&#xf4;" horiz-adv-x="1288" d="M1 444.5q0 131.5 26 237.5q18 72 98 124.5t188.5 76.5t233.5 23.5t233.5 -24.5t188.5 -77.5t98 -126.5q25 -104 25.5 -229.5t-25.5 -231.5q-18 -75 -98 -129t-188.5 -78t-233.5 -24t-233.5 24t-188.5 76t-98 123q-26 104 -26 235.5zM223 1038l256 205h29h53h55l254 -205 h-159l-45 37l-119 94l-117 -94l-45 -37h-162zM240 444.5q0 -106.5 14 -192.5q10 -57 55 -99t106.5 -61.5t131.5 -19.5t131.5 19.5t106.5 63.5t55 105q30 191 -2 375q-10 60 -55 103t-106 62.5t-131 19.5t-131 -19.5t-106 -62t-55 -101.5q-14 -86 -14 -192.5z" />
<glyph unicode="&#xf5;" horiz-adv-x="1288" d="M1 444.5q0 131.5 26 237.5q18 72 98 124.5t188.5 76.5t233.5 23.5t233.5 -24.5t188.5 -77.5t98 -126.5q25 -104 25.5 -229.5t-25.5 -231.5q-18 -75 -98 -129t-188.5 -78t-233.5 -24t-233.5 24t-188.5 76t-98 123q-26 104 -26 235.5zM158 1188q66 39 145.5 41t153.5 -17.5 t146 -40t143.5 -20.5t125.5 35l56 -92q-66 -39 -145 -41.5t-152 17.5t-144.5 40t-142.5 20.5t-125 -34.5zM240 444.5q0 -106.5 14 -192.5q10 -57 55 -99t106.5 -61.5t131.5 -19.5t131.5 19.5t106.5 63.5t55 105q30 191 -2 375q-10 60 -55 103t-106 62.5t-131 19.5 t-131 -19.5t-106 -62t-55 -101.5q-14 -86 -14 -192.5z" />
<glyph unicode="&#xf6;" horiz-adv-x="1288" d="M1 444.5q0 131.5 26 237.5q18 72 98 124.5t188.5 76.5t233.5 23.5t233.5 -24.5t188.5 -77.5t98 -126.5q25 -104 25.5 -229.5t-25.5 -231.5q-18 -75 -98 -129t-188.5 -78t-233.5 -24t-233.5 24t-188.5 76t-98 123q-26 104 -26 235.5zM205 1087q-14 53 0 105q8 32 62 45 t107.5 0t61.5 -45q13 -51 0 -102q-8 -33 -62 -46.5t-107.5 -0.5t-61.5 44zM240 444.5q0 -106.5 14 -192.5q10 -57 55 -99t106.5 -61.5t131.5 -19.5t131.5 19.5t106.5 63.5t55 105q30 191 -2 375q-10 60 -55 103t-106 62.5t-131 19.5t-131 -19.5t-106 -62t-55 -101.5 q-14 -86 -14 -192.5zM645 1087q-14 53 0 105q8 32 62 45t108 0t62 -45q13 -51 0 -102q-8 -33 -62 -46.5t-108 -0.5t-62 44z" />
<glyph unicode="&#xf7;" horiz-adv-x="970" d="M0 510v137h774v-137h-774zM272 246q-13 52 0 104q8 31 61 44t106.5 0t62.5 -44q10 -51 0 -102q-9 -32 -62.5 -44.5t-106.5 0t-61 42.5zM272 807q-13 51 0 102q8 32 61 45t106.5 0t62.5 -45q10 -52 0 -100q-9 -33 -62.5 -46t-106.5 -0.5t-61 44.5z" />
<glyph unicode="&#xf8;" horiz-adv-x="1288" d="M1 444.5q0 131.5 26 237.5q21 81 118.5 137t228.5 76t269 8l47 127h96l-51 -139q132 -25 221.5 -79t110.5 -134q25 -104 25.5 -229.5t-25.5 -231.5q-21 -89 -126.5 -147t-245.5 -76t-283 0l-43 -123h-97l50 137q-118 26 -197.5 77.5t-97.5 123.5q-26 104 -26 235.5z M240 444.5q0 -106.5 14 -192.5q14 -85 106 -137l252 700q-79 12 -155.5 -3.5t-133.5 -61.5t-69 -113q-14 -86 -14 -192.5zM444 82q60 -17 126 -11t122.5 25.5t97 62.5t50.5 101q30 191 -2 375q-20 104 -138 156z" />
<glyph unicode="&#xf9;" horiz-adv-x="1294" d="M4 444v437l240 -31v-406q4 -121 16 -192q14 -85 98.5 -132.5t192.5 -47.5q191 0 307 65v398v331h240v-848v-14l-230 31q-129 -49 -317 -49q-123 0 -232.5 24.5t-188.5 76t-97 122.5q-29 113 -29 235zM313 1284h168l156 -287h-168z" />
<glyph unicode="&#xfa;" horiz-adv-x="1294" d="M4 444v437l240 -31v-406q4 -121 16 -192q14 -85 98.5 -132.5t192.5 -47.5q191 0 307 65v398v331h240v-848v-14l-230 31q-129 -49 -317 -49q-123 0 -232.5 24.5t-188.5 76t-97 122.5q-29 113 -29 235zM469 997l156 287h168l-156 -287h-168z" />
<glyph unicode="&#xfb;" horiz-adv-x="1294" d="M4 444v437l240 -31v-406q4 -121 16 -192q14 -85 98.5 -132.5t192.5 -47.5q191 0 307 65v398v331h240v-848v-14l-230 31q-129 -49 -317 -49q-123 0 -232.5 24.5t-188.5 76t-97 122.5q-29 113 -29 235zM236 1038l256 205h28h53h56l254 -205h-160l-45 37l-119 94l-117 -94 l-45 -37h-161z" />
<glyph unicode="&#xfc;" horiz-adv-x="1294" d="M4 444v437l240 -31v-406q4 -121 16 -192q14 -85 98.5 -132.5t192.5 -47.5q191 0 307 65v398v331h240v-848v-14l-230 31q-129 -49 -317 -49q-123 0 -232.5 24.5t-188.5 76t-97 122.5q-29 113 -29 235zM213 1087q-14 53 0 105q8 32 61.5 45t107.5 0t62 -45q13 -51 0 -102 q-8 -33 -62 -46.5t-107.5 -0.5t-61.5 44zM653 1087q-14 53 0 105q8 32 62 45t108 0t62 -45q13 -51 0 -102q-8 -33 -62 -46.5t-108 -0.5t-62 44z" />
<glyph unicode="&#xfd;" horiz-adv-x="1048" d="M0 866h252l256 -784l254 784h96l-358 -1102l-74 -225h-94l149 461h-198zM375 997l155 287h168l-155 -287h-168z" />
<glyph unicode="&#xfe;" horiz-adv-x="1284" d="M0 -340v791v835l240 -33v-387q131 45 307 45q191 0 341 -59.5t177 -163.5q27 -105 27 -237q0 -131 -27 -236q-18 -71 -97 -122.5t-188.5 -76t-232.5 -24.5q-176 0 -307 45v-377h-240zM240 143q121 -65 307 -65q108 0 192.5 48.5t98.5 133.5q14 80 14 191q0 112 -14 192 q-14 84 -99 133t-192 49q-186 0 -307 -65v-617z" />
<glyph unicode="&#xff;" horiz-adv-x="1048" d="M0 866h252l256 -784l254 784h96l-358 -1102l-74 -225h-94l149 461h-198zM111 1087q-14 53 0 105q8 32 61.5 45t107.5 0t62 -45q13 -51 0 -102q-8 -33 -62 -46.5t-107.5 -0.5t-61.5 44zM551 1087q-14 53 0 105q8 32 62 45t107.5 0t61.5 -45q13 -51 0 -102 q-8 -33 -62 -46.5t-107.5 -0.5t-61.5 44z" />
<glyph unicode="&#x152;" horiz-adv-x="2025" d="M0 638q0 302 31 425q18 73 101.5 127.5t202.5 78.5t250.5 28t258 -20.5t211.5 -70.5q152 92 428 92h344v-88h-334q-175 0 -276 -36v-420h462v-88h-462v-226q0 -92 14 -192q10 -57 55.5 -99t107 -61.5t130.5 -19.5q182 0 297 59l65 -78q-144 -69 -362 -69q-132 0 -249 28 t-190 82q-79 -53 -206.5 -82t-264 -27.5t-262 24.5t-214.5 78.5t-107 131.5q-31 121 -31 423zM238 639q0 -258 20 -383q10 -61 63.5 -106t126.5 -65t158 -20t158 20t126.5 65t63.5 106q22 124 22 382.5t-22 381.5q-10 62 -63.5 107t-126.5 65.5t-158 20.5t-158 -20.5 t-126.5 -65.5t-63.5 -107q-20 -123 -20 -381z" />
<glyph unicode="&#x153;" horiz-adv-x="2129" d="M1 444.5q0 131.5 26 237.5q18 73 98 126t191.5 75t233.5 23.5t236.5 -26.5t186.5 -79q73 51 187.5 78.5t242.5 27.5q124 0 233.5 -24.5t190 -77.5t98.5 -127q25 -109 25 -203v-92h-850q4 -90 12 -131q14 -85 99.5 -132.5t193.5 -47.5q134 0 243.5 37.5t151.5 107.5 l101 -57q-53 -84 -188 -129t-298 -45q-134 0 -251 26t-191 78q-72 -51 -186.5 -78.5t-236 -26t-233.5 24t-192 75.5t-98 124q-26 104 -26 235.5zM240 444.5q0 -106.5 14 -192.5q10 -57 55 -99t106.5 -61.5t131.5 -19.5t131.5 19.5t106.5 63.5t55 105q30 191 -2 375 q-10 60 -55 103t-106 62.5t-131 19.5t-131 -19.5t-106 -62t-55 -101.5q-14 -86 -14 -192.5zM1098 475h612q0 74 -14 160q-11 59 -56 101.5t-106 62.5t-131 20q-107 0 -192 -48t-99 -134q-11 -65 -14 -162z" />
<glyph unicode="&#x178;" horiz-adv-x="1255" d="M0 1276h276l322 -557l365 557h110l-416 -633v-643h-239v551zM207 1497q-14 53 0 105q8 32 61.5 45t107.5 0t62 -45q13 -52 0 -103q-8 -33 -62 -46t-107.5 -0.5t-61.5 44.5zM647 1497q-14 53 0 105q8 32 62 45t108 0t62 -45q13 -52 0 -103q-8 -33 -62 -46t-108 -0.5 t-62 44.5z" />
<glyph unicode="&#x2c6;" horiz-adv-x="878" d="M0 1038l256 205h29h53h55l254 -205h-160l-45 37l-118 94l-117 -94l-45 -37h-162z" />
<glyph unicode="&#x2dc;" horiz-adv-x="989" d="M0 1188q66 39 145.5 41t153.5 -17.5t146.5 -40t144 -20.5t125.5 35l55 -92q-66 -39 -145 -41.5t-152 17.5t-144.5 40t-142.5 20.5t-125 -34.5z" />
<glyph unicode="&#x2000;" horiz-adv-x="865" />
<glyph unicode="&#x2001;" horiz-adv-x="1730" />
<glyph unicode="&#x2002;" horiz-adv-x="865" />
<glyph unicode="&#x2003;" horiz-adv-x="1730" />
<glyph unicode="&#x2004;" horiz-adv-x="576" />
<glyph unicode="&#x2005;" horiz-adv-x="432" />
<glyph unicode="&#x2006;" horiz-adv-x="288" />
<glyph unicode="&#x2007;" horiz-adv-x="288" />
<glyph unicode="&#x2008;" horiz-adv-x="216" />
<glyph unicode="&#x2009;" horiz-adv-x="346" />
<glyph unicode="&#x200a;" horiz-adv-x="96" />
<glyph unicode="&#x2010;" horiz-adv-x="1003" d="M0 510v137h774v-137h-774z" />
<glyph unicode="&#x2011;" horiz-adv-x="1003" d="M0 510v137h774v-137h-774z" />
<glyph unicode="&#x2012;" horiz-adv-x="1003" d="M0 510v137h774v-137h-774z" />
<glyph unicode="&#x2013;" horiz-adv-x="976" d="M0 510v137h774v-137h-774z" />
<glyph unicode="&#x2014;" horiz-adv-x="1255" d="M0 510v137h1061v-137h-1061z" />
<glyph unicode="&#x2018;" horiz-adv-x="491" d="M-2 1083q0 157 55 256h115q-38 -49 -51 -135q57 6 107 -9.5t59 -47.5q14 -63 0 -125q-10 -38 -74 -53.5t-129 -0.5t-74 54q-8 36 -8 61z" />
<glyph unicode="&#x2019;" horiz-adv-x="485" d="M6 1133q-13 62 0 124q10 38 74 53.5t129 0.5t74 -54q8 -36 8 -61q0 -157 -55 -256h-115q38 49 51 135q-57 -6 -107 10t-59 48z" />
<glyph unicode="&#x201a;" horiz-adv-x="339" d="M0 -135v305l180 -25v-311z" />
<glyph unicode="&#x201c;" horiz-adv-x="874" d="M-2 1083q0 157 55 256h115q-38 -49 -51 -135q57 6 107 -9.5t59 -47.5q14 -63 0 -125q-10 -38 -74 -53.5t-129 -0.5t-74 54q-8 36 -8 61zM375 1083q0 157 55 256h115q-38 -49 -51 -135q57 6 106.5 -9.5t58.5 -47.5q14 -63 0 -125q-10 -38 -74 -53.5t-128.5 -0.5t-73.5 54 q-8 24 -8 61z" />
<glyph unicode="&#x201d;" horiz-adv-x="892" d="M6 1133q-13 62 0 124q10 38 74 53.5t129 0.5t74 -54q8 -24 8 -61q0 -157 -55 -256h-115q38 49 51 135q-57 -6 -107 10t-59 48zM383 1133q-13 62 0 124q10 38 74 53.5t128.5 0.5t73.5 -54q9 -41 9 -61q0 -155 -56 -256h-114q38 49 51 135q-57 -6 -107 10t-59 48z" />
<glyph unicode="&#x201e;" horiz-adv-x="620" d="M0 -135v305l180 -25v-311zM248 -135v305l180 -25v-311z" />
<glyph unicode="&#x2022;" horiz-adv-x="530" d="M8 500q-17 78 0 157q7 29 39 48t74.5 23.5t84.5 0t74 -24.5t39 -49q16 -74 3 -153q-9 -37 -56.5 -57.5t-101.5 -20t-101 20.5t-55 55z" />
<glyph unicode="&#x2026;" horiz-adv-x="1492" d="M6 51q-13 63 0 127q10 38 74 53t129 -0.5t74 -54.5q17 -61 0 -121q-9 -40 -73.5 -55.5t-129 -0.5t-74.5 52zM504 51q-13 63 0 127q10 38 74 53t128.5 -0.5t73.5 -54.5q17 -60 0 -121q-9 -40 -73 -55.5t-128.5 -0.5t-74.5 52zM1001 51q-13 63 0 127q10 38 74 53t129 -0.5 t74 -54.5q17 -61 0 -121q-9 -40 -73.5 -55.5t-129 -0.5t-74.5 52z" />
<glyph unicode="&#x202f;" horiz-adv-x="346" />
<glyph unicode="&#x2039;" horiz-adv-x="741" d="M0 578l256 276h279l-259 -276l259 -275h-279z" />
<glyph unicode="&#x203a;" horiz-adv-x="729" d="M0 303l258 275l-258 276h279l256 -276l-256 -275h-279z" />
<glyph unicode="&#x205f;" horiz-adv-x="432" />
<glyph unicode="&#x20ac;" horiz-adv-x="1320" d="M0 498l23 90h131v121h-140l23 90h117v49q0 134 26 235q18 71 98 123t190 76.5t234 24.5q142 0 265.5 -33.5t191.5 -97.5l-92 -66q-54 54 -154 82.5t-215 28.5q-69 0 -130 -20t-105 -62.5t-55 -100.5q-15 -83 -15 -190v-49h228l-21 -90h-207v-121h213l-20 -90h-193v-52 q0 -104 15 -190q16 -85 99 -132.5t191 -47.5q135 0 245.5 37.5t152.5 107.5l100 -57q-56 -85 -192.5 -129.5t-303.5 -44.5q-123 0 -232.5 24.5t-189.5 76t-98 122.5q-26 106 -26 193v92h-154z" />
<glyph unicode="&#x25fc;" horiz-adv-x="870" d="M0 0v870h870v-870h-870z" />
</font>
</defs>
</svg>
